<mxfile host="app.diagrams.net" agent="Mozilla/5.0 (Windows NT 10.0; Win64; x64; rv:137.0) Gecko/20100101 Firefox/137.0" version="26.2.9">
  <diagram id="C5RBs43oDa-KdzZeNtuy" name="Page-1">
    <mxGraphModel dx="2140" dy="1881" grid="1" gridSize="10" guides="1" tooltips="1" connect="1" arrows="1" fold="1" page="1" pageScale="1" pageWidth="827" pageHeight="1169" math="0" shadow="0">
      <root>
        <mxCell id="WIyWlLk6GJQsqaUBKTNV-0" />
        <mxCell id="WIyWlLk6GJQsqaUBKTNV-1" parent="WIyWlLk6GJQsqaUBKTNV-0" />
        <mxCell id="gjct6-y1da_A0qvUHwuh-25" value="" style="edgeStyle=orthogonalEdgeStyle;rounded=0;orthogonalLoop=1;jettySize=auto;html=1;" parent="WIyWlLk6GJQsqaUBKTNV-1" source="WIyWlLk6GJQsqaUBKTNV-3" target="gjct6-y1da_A0qvUHwuh-24" edge="1">
          <mxGeometry relative="1" as="geometry" />
        </mxCell>
        <mxCell id="WIyWlLk6GJQsqaUBKTNV-3" value="program run" style="rounded=1;whiteSpace=wrap;html=1;fontSize=12;glass=0;strokeWidth=1;shadow=0;" parent="WIyWlLk6GJQsqaUBKTNV-1" vertex="1">
          <mxGeometry x="160" y="-200" width="120" height="40" as="geometry" />
        </mxCell>
        <mxCell id="WIyWlLk6GJQsqaUBKTNV-4" value="Yes" style="rounded=0;html=1;jettySize=auto;orthogonalLoop=1;fontSize=11;endArrow=block;endFill=0;endSize=8;strokeWidth=1;shadow=0;labelBackgroundColor=none;edgeStyle=orthogonalEdgeStyle;entryX=0;entryY=0.5;entryDx=0;entryDy=0;" parent="WIyWlLk6GJQsqaUBKTNV-1" source="WIyWlLk6GJQsqaUBKTNV-6" target="dWy9M6w6shqokPIV0m0O-8" edge="1">
          <mxGeometry x="-0.0052" y="10" relative="1" as="geometry">
            <mxPoint x="-10" y="-10" as="offset" />
            <mxPoint x="350" y="330" as="targetPoint" />
          </mxGeometry>
        </mxCell>
        <mxCell id="dWy9M6w6shqokPIV0m0O-6" style="edgeStyle=orthogonalEdgeStyle;rounded=0;orthogonalLoop=1;jettySize=auto;html=1;exitX=0.5;exitY=1;exitDx=0;exitDy=0;entryX=0;entryY=0.5;entryDx=0;entryDy=0;" parent="WIyWlLk6GJQsqaUBKTNV-1" source="WIyWlLk6GJQsqaUBKTNV-6" target="WIyWlLk6GJQsqaUBKTNV-6" edge="1">
          <mxGeometry relative="1" as="geometry">
            <mxPoint x="160" y="380" as="targetPoint" />
            <Array as="points">
              <mxPoint x="220" y="390" />
              <mxPoint x="110" y="390" />
              <mxPoint x="110" y="330" />
            </Array>
          </mxGeometry>
        </mxCell>
        <mxCell id="dWy9M6w6shqokPIV0m0O-7" value="&lt;div&gt;No&lt;/div&gt;&lt;div&gt;&lt;br&gt;&lt;/div&gt;" style="edgeLabel;html=1;align=center;verticalAlign=middle;resizable=0;points=[];" parent="dWy9M6w6shqokPIV0m0O-6" vertex="1" connectable="0">
          <mxGeometry x="-0.3864" y="1" relative="1" as="geometry">
            <mxPoint x="47" y="19" as="offset" />
          </mxGeometry>
        </mxCell>
        <mxCell id="WIyWlLk6GJQsqaUBKTNV-6" value="start &lt;br&gt;&lt;div&gt;button&lt;/div&gt;&lt;div&gt;pressed?&lt;/div&gt;" style="rhombus;whiteSpace=wrap;html=1;shadow=0;fontFamily=Helvetica;fontSize=12;align=center;strokeWidth=1;spacing=6;spacingTop=-4;" parent="WIyWlLk6GJQsqaUBKTNV-1" vertex="1">
          <mxGeometry x="170" y="290" width="100" height="80" as="geometry" />
        </mxCell>
        <mxCell id="dWy9M6w6shqokPIV0m0O-4" style="edgeStyle=orthogonalEdgeStyle;rounded=0;orthogonalLoop=1;jettySize=auto;html=1;exitX=0.5;exitY=1;exitDx=0;exitDy=0;entryX=0.5;entryY=0;entryDx=0;entryDy=0;" parent="WIyWlLk6GJQsqaUBKTNV-1" source="Bdh57RUHH2L1J_IjQSGo-33" target="WIyWlLk6GJQsqaUBKTNV-6" edge="1">
          <mxGeometry relative="1" as="geometry" />
        </mxCell>
        <mxCell id="dWy9M6w6shqokPIV0m0O-2" value="draw start button" style="rounded=1;whiteSpace=wrap;html=1;fontSize=12;glass=0;strokeWidth=1;shadow=0;" parent="WIyWlLk6GJQsqaUBKTNV-1" vertex="1">
          <mxGeometry x="160" y="100" width="120" height="40" as="geometry" />
        </mxCell>
        <mxCell id="dWy9M6w6shqokPIV0m0O-8" value="run game loop" style="rounded=1;whiteSpace=wrap;html=1;" parent="WIyWlLk6GJQsqaUBKTNV-1" vertex="1">
          <mxGeometry x="354" y="310" width="120" height="40" as="geometry" />
        </mxCell>
        <mxCell id="Bdh57RUHH2L1J_IjQSGo-11" style="edgeStyle=orthogonalEdgeStyle;rounded=0;orthogonalLoop=1;jettySize=auto;html=1;exitX=0.5;exitY=1;exitDx=0;exitDy=0;entryX=0.5;entryY=0;entryDx=0;entryDy=0;" edge="1" parent="WIyWlLk6GJQsqaUBKTNV-1" source="Bdh57RUHH2L1J_IjQSGo-13" target="Bdh57RUHH2L1J_IjQSGo-23">
          <mxGeometry relative="1" as="geometry" />
        </mxCell>
        <mxCell id="Bdh57RUHH2L1J_IjQSGo-15" value="&lt;div&gt;Yes&lt;/div&gt;" style="edgeLabel;html=1;align=center;verticalAlign=middle;resizable=0;points=[];" vertex="1" connectable="0" parent="Bdh57RUHH2L1J_IjQSGo-11">
          <mxGeometry x="-0.1067" y="-4" relative="1" as="geometry">
            <mxPoint y="-83" as="offset" />
          </mxGeometry>
        </mxCell>
        <mxCell id="Bdh57RUHH2L1J_IjQSGo-75" value="Yes" style="edgeLabel;html=1;align=center;verticalAlign=middle;resizable=0;points=[];" vertex="1" connectable="0" parent="Bdh57RUHH2L1J_IjQSGo-11">
          <mxGeometry x="-0.2116" y="2" relative="1" as="geometry">
            <mxPoint as="offset" />
          </mxGeometry>
        </mxCell>
        <mxCell id="dWy9M6w6shqokPIV0m0O-9" value="game loop" style="rounded=1;whiteSpace=wrap;html=1;" parent="WIyWlLk6GJQsqaUBKTNV-1" vertex="1">
          <mxGeometry x="140" y="510" width="120" height="40" as="geometry" />
        </mxCell>
        <mxCell id="dWy9M6w6shqokPIV0m0O-16" style="edgeStyle=orthogonalEdgeStyle;rounded=0;orthogonalLoop=1;jettySize=auto;html=1;exitX=0;exitY=0.5;exitDx=0;exitDy=0;entryX=0.5;entryY=0;entryDx=0;entryDy=0;" parent="WIyWlLk6GJQsqaUBKTNV-1" source="dWy9M6w6shqokPIV0m0O-20" edge="1">
          <mxGeometry relative="1" as="geometry">
            <mxPoint x="50.06" y="1492.5600000000004" as="targetPoint" />
          </mxGeometry>
        </mxCell>
        <mxCell id="dWy9M6w6shqokPIV0m0O-21" value="&lt;div&gt;Up&lt;/div&gt;" style="edgeLabel;html=1;align=center;verticalAlign=middle;resizable=0;points=[];" parent="dWy9M6w6shqokPIV0m0O-16" vertex="1" connectable="0">
          <mxGeometry x="0.0157" y="1" relative="1" as="geometry">
            <mxPoint as="offset" />
          </mxGeometry>
        </mxCell>
        <mxCell id="dWy9M6w6shqokPIV0m0O-17" style="edgeStyle=orthogonalEdgeStyle;rounded=0;orthogonalLoop=1;jettySize=auto;html=1;exitX=0;exitY=1;exitDx=0;exitDy=0;entryX=0.5;entryY=0;entryDx=0;entryDy=0;" parent="WIyWlLk6GJQsqaUBKTNV-1" source="dWy9M6w6shqokPIV0m0O-14" target="dWy9M6w6shqokPIV0m0O-24" edge="1">
          <mxGeometry relative="1" as="geometry">
            <mxPoint x="162.56" y="1492.56" as="targetPoint" />
          </mxGeometry>
        </mxCell>
        <mxCell id="dWy9M6w6shqokPIV0m0O-25" value="Down" style="edgeLabel;html=1;align=center;verticalAlign=middle;resizable=0;points=[];" parent="dWy9M6w6shqokPIV0m0O-17" vertex="1" connectable="0">
          <mxGeometry x="-0.2626" y="3" relative="1" as="geometry">
            <mxPoint as="offset" />
          </mxGeometry>
        </mxCell>
        <mxCell id="dWy9M6w6shqokPIV0m0O-18" style="edgeStyle=orthogonalEdgeStyle;rounded=0;orthogonalLoop=1;jettySize=auto;html=1;exitX=1;exitY=1;exitDx=0;exitDy=0;entryX=0.5;entryY=0;entryDx=0;entryDy=0;" parent="WIyWlLk6GJQsqaUBKTNV-1" source="dWy9M6w6shqokPIV0m0O-14" target="dWy9M6w6shqokPIV0m0O-26" edge="1">
          <mxGeometry relative="1" as="geometry">
            <mxPoint x="219.67764705882365" y="1492.56" as="targetPoint" />
          </mxGeometry>
        </mxCell>
        <mxCell id="dWy9M6w6shqokPIV0m0O-27" value="Left" style="edgeLabel;html=1;align=center;verticalAlign=middle;resizable=0;points=[];" parent="dWy9M6w6shqokPIV0m0O-18" vertex="1" connectable="0">
          <mxGeometry x="-0.3451" y="-3" relative="1" as="geometry">
            <mxPoint as="offset" />
          </mxGeometry>
        </mxCell>
        <mxCell id="dWy9M6w6shqokPIV0m0O-19" style="edgeStyle=orthogonalEdgeStyle;rounded=0;orthogonalLoop=1;jettySize=auto;html=1;exitX=1;exitY=0.5;exitDx=0;exitDy=0;entryX=0.5;entryY=0;entryDx=0;entryDy=0;" parent="WIyWlLk6GJQsqaUBKTNV-1" source="dWy9M6w6shqokPIV0m0O-14" target="dWy9M6w6shqokPIV0m0O-28" edge="1">
          <mxGeometry relative="1" as="geometry">
            <mxPoint x="302.56" y="1492.56" as="targetPoint" />
          </mxGeometry>
        </mxCell>
        <mxCell id="dWy9M6w6shqokPIV0m0O-29" value="Right" style="edgeLabel;html=1;align=center;verticalAlign=middle;resizable=0;points=[];" parent="dWy9M6w6shqokPIV0m0O-19" vertex="1" connectable="0">
          <mxGeometry x="0.2892" relative="1" as="geometry">
            <mxPoint as="offset" />
          </mxGeometry>
        </mxCell>
        <mxCell id="dWy9M6w6shqokPIV0m0O-31" style="edgeStyle=orthogonalEdgeStyle;rounded=0;orthogonalLoop=1;jettySize=auto;html=1;exitX=0.5;exitY=1;exitDx=0;exitDy=0;entryX=0.5;entryY=0;entryDx=0;entryDy=0;" parent="WIyWlLk6GJQsqaUBKTNV-1" source="dWy9M6w6shqokPIV0m0O-14" target="dWy9M6w6shqokPIV0m0O-30" edge="1">
          <mxGeometry relative="1" as="geometry" />
        </mxCell>
        <mxCell id="dWy9M6w6shqokPIV0m0O-32" value="None" style="edgeLabel;html=1;align=center;verticalAlign=middle;resizable=0;points=[];" parent="dWy9M6w6shqokPIV0m0O-31" vertex="1" connectable="0">
          <mxGeometry x="0.6828" relative="1" as="geometry">
            <mxPoint as="offset" />
          </mxGeometry>
        </mxCell>
        <mxCell id="dWy9M6w6shqokPIV0m0O-14" value="&lt;div&gt;check for&lt;/div&gt;&lt;div&gt;directional&lt;/div&gt;&lt;div&gt;input&lt;/div&gt;" style="rhombus;whiteSpace=wrap;html=1;" parent="WIyWlLk6GJQsqaUBKTNV-1" vertex="1">
          <mxGeometry x="137.56" y="1312.56" width="110" height="70" as="geometry" />
        </mxCell>
        <mxCell id="dWy9M6w6shqokPIV0m0O-36" style="edgeStyle=orthogonalEdgeStyle;rounded=0;orthogonalLoop=1;jettySize=auto;html=1;exitX=0.5;exitY=1;exitDx=0;exitDy=0;entryX=0;entryY=0;entryDx=0;entryDy=0;" parent="WIyWlLk6GJQsqaUBKTNV-1" target="dWy9M6w6shqokPIV0m0O-30" edge="1">
          <mxGeometry relative="1" as="geometry">
            <mxPoint x="50.06" y="1532.5600000000004" as="sourcePoint" />
            <Array as="points">
              <mxPoint x="60" y="1533" />
              <mxPoint x="60" y="1580" />
              <mxPoint x="133" y="1580" />
            </Array>
          </mxGeometry>
        </mxCell>
        <mxCell id="dWy9M6w6shqokPIV0m0O-35" style="edgeStyle=orthogonalEdgeStyle;rounded=0;orthogonalLoop=1;jettySize=auto;html=1;exitX=0.5;exitY=1;exitDx=0;exitDy=0;entryX=0.25;entryY=0;entryDx=0;entryDy=0;" parent="WIyWlLk6GJQsqaUBKTNV-1" source="dWy9M6w6shqokPIV0m0O-24" target="dWy9M6w6shqokPIV0m0O-30" edge="1">
          <mxGeometry relative="1" as="geometry" />
        </mxCell>
        <mxCell id="dWy9M6w6shqokPIV0m0O-24" value="set input to down" style="rounded=1;whiteSpace=wrap;html=1;" parent="WIyWlLk6GJQsqaUBKTNV-1" vertex="1">
          <mxGeometry x="112.56" y="1492.56" width="75" height="40" as="geometry" />
        </mxCell>
        <mxCell id="dWy9M6w6shqokPIV0m0O-34" style="edgeStyle=orthogonalEdgeStyle;rounded=0;orthogonalLoop=1;jettySize=auto;html=1;exitX=0.5;exitY=1;exitDx=0;exitDy=0;entryX=0.75;entryY=0;entryDx=0;entryDy=0;" parent="WIyWlLk6GJQsqaUBKTNV-1" source="dWy9M6w6shqokPIV0m0O-26" target="dWy9M6w6shqokPIV0m0O-30" edge="1">
          <mxGeometry relative="1" as="geometry" />
        </mxCell>
        <mxCell id="dWy9M6w6shqokPIV0m0O-26" value="set input to left" style="rounded=1;whiteSpace=wrap;html=1;" parent="WIyWlLk6GJQsqaUBKTNV-1" vertex="1">
          <mxGeometry x="197.56" y="1492.56" width="75" height="40" as="geometry" />
        </mxCell>
        <mxCell id="dWy9M6w6shqokPIV0m0O-33" style="edgeStyle=orthogonalEdgeStyle;rounded=0;orthogonalLoop=1;jettySize=auto;html=1;exitX=0.5;exitY=1;exitDx=0;exitDy=0;entryX=1;entryY=0;entryDx=0;entryDy=0;" parent="WIyWlLk6GJQsqaUBKTNV-1" source="dWy9M6w6shqokPIV0m0O-28" target="dWy9M6w6shqokPIV0m0O-30" edge="1">
          <mxGeometry relative="1" as="geometry" />
        </mxCell>
        <mxCell id="dWy9M6w6shqokPIV0m0O-28" value="set input to right" style="rounded=1;whiteSpace=wrap;html=1;" parent="WIyWlLk6GJQsqaUBKTNV-1" vertex="1">
          <mxGeometry x="292.56" y="1492.56" width="75" height="40" as="geometry" />
        </mxCell>
        <mxCell id="Bdh57RUHH2L1J_IjQSGo-53" style="edgeStyle=orthogonalEdgeStyle;rounded=0;orthogonalLoop=1;jettySize=auto;html=1;exitX=0.5;exitY=1;exitDx=0;exitDy=0;entryX=0.5;entryY=0;entryDx=0;entryDy=0;" edge="1" parent="WIyWlLk6GJQsqaUBKTNV-1" source="dWy9M6w6shqokPIV0m0O-30" target="Bdh57RUHH2L1J_IjQSGo-49">
          <mxGeometry relative="1" as="geometry" />
        </mxCell>
        <mxCell id="dWy9M6w6shqokPIV0m0O-30" value="move player in direction of input" style="rounded=1;whiteSpace=wrap;html=1;" parent="WIyWlLk6GJQsqaUBKTNV-1" vertex="1">
          <mxGeometry x="132.56" y="1632.56" width="120" height="60" as="geometry" />
        </mxCell>
        <mxCell id="dWy9M6w6shqokPIV0m0O-43" style="edgeStyle=orthogonalEdgeStyle;rounded=0;orthogonalLoop=1;jettySize=auto;html=1;exitX=0.5;exitY=1;exitDx=0;exitDy=0;entryX=0.5;entryY=0;entryDx=0;entryDy=0;" parent="WIyWlLk6GJQsqaUBKTNV-1" source="dWy9M6w6shqokPIV0m0O-38" target="dWy9M6w6shqokPIV0m0O-42" edge="1">
          <mxGeometry relative="1" as="geometry" />
        </mxCell>
        <mxCell id="dWy9M6w6shqokPIV0m0O-48" value="Yes" style="edgeLabel;html=1;align=center;verticalAlign=middle;resizable=0;points=[];" parent="dWy9M6w6shqokPIV0m0O-43" vertex="1" connectable="0">
          <mxGeometry x="-0.4" y="-2" relative="1" as="geometry">
            <mxPoint as="offset" />
          </mxGeometry>
        </mxCell>
        <mxCell id="dWy9M6w6shqokPIV0m0O-45" style="edgeStyle=orthogonalEdgeStyle;rounded=0;orthogonalLoop=1;jettySize=auto;html=1;exitX=1;exitY=0.5;exitDx=0;exitDy=0;entryX=0;entryY=0.5;entryDx=0;entryDy=0;" parent="WIyWlLk6GJQsqaUBKTNV-1" source="dWy9M6w6shqokPIV0m0O-38" target="dWy9M6w6shqokPIV0m0O-46" edge="1">
          <mxGeometry relative="1" as="geometry">
            <mxPoint x="405.55999999999995" y="1484.8799999999997" as="targetPoint" />
          </mxGeometry>
        </mxCell>
        <mxCell id="dWy9M6w6shqokPIV0m0O-49" value="No" style="edgeLabel;html=1;align=center;verticalAlign=middle;resizable=0;points=[];" parent="dWy9M6w6shqokPIV0m0O-45" vertex="1" connectable="0">
          <mxGeometry x="-0.2978" y="1" relative="1" as="geometry">
            <mxPoint as="offset" />
          </mxGeometry>
        </mxCell>
        <mxCell id="dWy9M6w6shqokPIV0m0O-38" value="is the player touching a dot?" style="rhombus;whiteSpace=wrap;html=1;" parent="WIyWlLk6GJQsqaUBKTNV-1" vertex="1">
          <mxGeometry x="480" y="1712.56" width="110" height="60" as="geometry" />
        </mxCell>
        <mxCell id="dWy9M6w6shqokPIV0m0O-47" style="edgeStyle=orthogonalEdgeStyle;rounded=0;orthogonalLoop=1;jettySize=auto;html=1;exitX=1;exitY=0.5;exitDx=0;exitDy=0;entryX=0.5;entryY=1;entryDx=0;entryDy=0;" parent="WIyWlLk6GJQsqaUBKTNV-1" source="dWy9M6w6shqokPIV0m0O-41" target="dWy9M6w6shqokPIV0m0O-46" edge="1">
          <mxGeometry relative="1" as="geometry">
            <mxPoint x="470.55999999999995" y="1514.8799999999997" as="targetPoint" />
          </mxGeometry>
        </mxCell>
        <mxCell id="dWy9M6w6shqokPIV0m0O-41" value="increase playerScore by 1" style="rounded=1;whiteSpace=wrap;html=1;" parent="WIyWlLk6GJQsqaUBKTNV-1" vertex="1">
          <mxGeometry x="490" y="1842.56" width="95" height="31" as="geometry" />
        </mxCell>
        <mxCell id="dWy9M6w6shqokPIV0m0O-44" style="edgeStyle=orthogonalEdgeStyle;rounded=0;orthogonalLoop=1;jettySize=auto;html=1;exitX=0.5;exitY=1;exitDx=0;exitDy=0;entryX=0.5;entryY=0;entryDx=0;entryDy=0;" parent="WIyWlLk6GJQsqaUBKTNV-1" source="dWy9M6w6shqokPIV0m0O-42" target="dWy9M6w6shqokPIV0m0O-41" edge="1">
          <mxGeometry relative="1" as="geometry" />
        </mxCell>
        <mxCell id="dWy9M6w6shqokPIV0m0O-42" value="delete the dot" style="rounded=1;whiteSpace=wrap;html=1;" parent="WIyWlLk6GJQsqaUBKTNV-1" vertex="1">
          <mxGeometry x="490" y="1792.56" width="90" height="30" as="geometry" />
        </mxCell>
        <mxCell id="dWy9M6w6shqokPIV0m0O-50" style="edgeStyle=orthogonalEdgeStyle;rounded=0;orthogonalLoop=1;jettySize=auto;html=1;exitX=0.5;exitY=0;exitDx=0;exitDy=0;entryX=1;entryY=1;entryDx=0;entryDy=0;" parent="WIyWlLk6GJQsqaUBKTNV-1" source="dWy9M6w6shqokPIV0m0O-46" target="Bdh57RUHH2L1J_IjQSGo-13" edge="1">
          <mxGeometry relative="1" as="geometry">
            <mxPoint x="360" y="770" as="targetPoint" />
            <Array as="points">
              <mxPoint x="715" y="770" />
              <mxPoint x="236" y="770" />
              <mxPoint x="236" y="713" />
            </Array>
          </mxGeometry>
        </mxCell>
        <mxCell id="dWy9M6w6shqokPIV0m0O-51" value="Yes" style="edgeLabel;html=1;align=center;verticalAlign=middle;resizable=0;points=[];" parent="dWy9M6w6shqokPIV0m0O-50" vertex="1" connectable="0">
          <mxGeometry x="-0.6192" y="-2" relative="1" as="geometry">
            <mxPoint x="1" as="offset" />
          </mxGeometry>
        </mxCell>
        <mxCell id="dWy9M6w6shqokPIV0m0O-52" style="edgeStyle=orthogonalEdgeStyle;rounded=0;orthogonalLoop=1;jettySize=auto;html=1;exitX=1;exitY=0.5;exitDx=0;exitDy=0;" parent="WIyWlLk6GJQsqaUBKTNV-1" source="dWy9M6w6shqokPIV0m0O-46" target="dWy9M6w6shqokPIV0m0O-53" edge="1">
          <mxGeometry relative="1" as="geometry">
            <mxPoint x="900" y="1474.75" as="targetPoint" />
          </mxGeometry>
        </mxCell>
        <mxCell id="dWy9M6w6shqokPIV0m0O-54" value="&lt;div&gt;No&lt;/div&gt;" style="edgeLabel;html=1;align=center;verticalAlign=middle;resizable=0;points=[];" parent="dWy9M6w6shqokPIV0m0O-52" vertex="1" connectable="0">
          <mxGeometry x="-0.1111" y="-1" relative="1" as="geometry">
            <mxPoint as="offset" />
          </mxGeometry>
        </mxCell>
        <mxCell id="dWy9M6w6shqokPIV0m0O-46" value="&lt;div&gt;are there&lt;/div&gt;&lt;div&gt;dots left?&lt;/div&gt;" style="rhombus;whiteSpace=wrap;html=1;" parent="WIyWlLk6GJQsqaUBKTNV-1" vertex="1">
          <mxGeometry x="660" y="1454.88" width="110" height="60" as="geometry" />
        </mxCell>
        <mxCell id="dWy9M6w6shqokPIV0m0O-56" style="edgeStyle=orthogonalEdgeStyle;rounded=0;orthogonalLoop=1;jettySize=auto;html=1;exitX=0.5;exitY=0;exitDx=0;exitDy=0;entryX=0.5;entryY=1;entryDx=0;entryDy=0;" parent="WIyWlLk6GJQsqaUBKTNV-1" source="dWy9M6w6shqokPIV0m0O-53" target="dWy9M6w6shqokPIV0m0O-55" edge="1">
          <mxGeometry relative="1" as="geometry" />
        </mxCell>
        <mxCell id="dWy9M6w6shqokPIV0m0O-53" value="draw game over, score, and play again and quit buttons." style="rounded=1;whiteSpace=wrap;html=1;" parent="WIyWlLk6GJQsqaUBKTNV-1" vertex="1">
          <mxGeometry x="920" y="1429.94" width="120" height="109.88" as="geometry" />
        </mxCell>
        <mxCell id="dWy9M6w6shqokPIV0m0O-57" style="edgeStyle=orthogonalEdgeStyle;rounded=0;orthogonalLoop=1;jettySize=auto;html=1;exitX=1;exitY=0.5;exitDx=0;exitDy=0;" parent="WIyWlLk6GJQsqaUBKTNV-1" source="dWy9M6w6shqokPIV0m0O-55" target="dWy9M6w6shqokPIV0m0O-58" edge="1">
          <mxGeometry relative="1" as="geometry">
            <mxPoint x="1070" y="1104.93" as="targetPoint" />
          </mxGeometry>
        </mxCell>
        <mxCell id="dWy9M6w6shqokPIV0m0O-59" value="Yes" style="edgeLabel;html=1;align=center;verticalAlign=middle;resizable=0;points=[];" parent="dWy9M6w6shqokPIV0m0O-57" vertex="1" connectable="0">
          <mxGeometry x="-0.25" y="-2" relative="1" as="geometry">
            <mxPoint as="offset" />
          </mxGeometry>
        </mxCell>
        <mxCell id="dWy9M6w6shqokPIV0m0O-61" style="edgeStyle=orthogonalEdgeStyle;rounded=0;orthogonalLoop=1;jettySize=auto;html=1;exitX=0.5;exitY=0;exitDx=0;exitDy=0;entryX=0.5;entryY=1;entryDx=0;entryDy=0;" parent="WIyWlLk6GJQsqaUBKTNV-1" edge="1">
          <mxGeometry relative="1" as="geometry">
            <mxPoint x="981" y="1252.5" as="sourcePoint" />
            <mxPoint x="981" y="1207.5" as="targetPoint" />
          </mxGeometry>
        </mxCell>
        <mxCell id="dWy9M6w6shqokPIV0m0O-62" value="&lt;div&gt;No&lt;/div&gt;" style="edgeLabel;html=1;align=center;verticalAlign=middle;resizable=0;points=[];" parent="dWy9M6w6shqokPIV0m0O-61" vertex="1" connectable="0">
          <mxGeometry x="-0.1556" y="1" relative="1" as="geometry">
            <mxPoint as="offset" />
          </mxGeometry>
        </mxCell>
        <mxCell id="dWy9M6w6shqokPIV0m0O-55" value="&lt;div&gt;quit button&lt;/div&gt;&lt;div&gt;pressed?&lt;/div&gt;" style="rhombus;whiteSpace=wrap;html=1;" parent="WIyWlLk6GJQsqaUBKTNV-1" vertex="1">
          <mxGeometry x="920" y="1252.5" width="120" height="70" as="geometry" />
        </mxCell>
        <mxCell id="Bdh57RUHH2L1J_IjQSGo-16" style="edgeStyle=orthogonalEdgeStyle;rounded=0;orthogonalLoop=1;jettySize=auto;html=1;exitX=0.5;exitY=0;exitDx=0;exitDy=0;entryX=1;entryY=0.5;entryDx=0;entryDy=0;" edge="1" parent="WIyWlLk6GJQsqaUBKTNV-1" source="dWy9M6w6shqokPIV0m0O-58" target="Bdh57RUHH2L1J_IjQSGo-13">
          <mxGeometry relative="1" as="geometry" />
        </mxCell>
        <mxCell id="dWy9M6w6shqokPIV0m0O-58" value="running == false" style="rounded=1;whiteSpace=wrap;html=1;" parent="WIyWlLk6GJQsqaUBKTNV-1" vertex="1">
          <mxGeometry x="1100" y="1270" width="110" height="35" as="geometry" />
        </mxCell>
        <mxCell id="dWy9M6w6shqokPIV0m0O-63" style="edgeStyle=orthogonalEdgeStyle;rounded=0;orthogonalLoop=1;jettySize=auto;html=1;exitX=0.5;exitY=0;exitDx=0;exitDy=0;" parent="WIyWlLk6GJQsqaUBKTNV-1" source="dWy9M6w6shqokPIV0m0O-60" target="dWy9M6w6shqokPIV0m0O-64" edge="1">
          <mxGeometry relative="1" as="geometry">
            <mxPoint x="980" y="1092.5" as="targetPoint" />
          </mxGeometry>
        </mxCell>
        <mxCell id="dWy9M6w6shqokPIV0m0O-65" value="Yes" style="edgeLabel;html=1;align=center;verticalAlign=middle;resizable=0;points=[];" parent="dWy9M6w6shqokPIV0m0O-63" vertex="1" connectable="0">
          <mxGeometry x="-0.2667" y="-1" relative="1" as="geometry">
            <mxPoint as="offset" />
          </mxGeometry>
        </mxCell>
        <mxCell id="dWy9M6w6shqokPIV0m0O-66" style="edgeStyle=orthogonalEdgeStyle;rounded=0;orthogonalLoop=1;jettySize=auto;html=1;exitX=0;exitY=0.5;exitDx=0;exitDy=0;entryX=0;entryY=0.5;entryDx=0;entryDy=0;" parent="WIyWlLk6GJQsqaUBKTNV-1" source="dWy9M6w6shqokPIV0m0O-60" target="dWy9M6w6shqokPIV0m0O-55" edge="1">
          <mxGeometry relative="1" as="geometry">
            <mxPoint x="870" y="1292.5" as="targetPoint" />
            <Array as="points">
              <mxPoint x="870" y="1172.5" />
              <mxPoint x="870" y="1287.5" />
            </Array>
          </mxGeometry>
        </mxCell>
        <mxCell id="dWy9M6w6shqokPIV0m0O-67" value="&lt;div&gt;No&lt;/div&gt;" style="edgeLabel;html=1;align=center;verticalAlign=middle;resizable=0;points=[];" parent="dWy9M6w6shqokPIV0m0O-66" vertex="1" connectable="0">
          <mxGeometry x="-0.7619" y="-2" relative="1" as="geometry">
            <mxPoint as="offset" />
          </mxGeometry>
        </mxCell>
        <mxCell id="dWy9M6w6shqokPIV0m0O-60" value="&lt;div&gt;play again&lt;/div&gt;&lt;div&gt;button pressed?&lt;/div&gt;" style="rhombus;whiteSpace=wrap;html=1;" parent="WIyWlLk6GJQsqaUBKTNV-1" vertex="1">
          <mxGeometry x="915" y="1137.5" width="130" height="70" as="geometry" />
        </mxCell>
        <mxCell id="gjct6-y1da_A0qvUHwuh-35" value="" style="edgeStyle=orthogonalEdgeStyle;rounded=0;orthogonalLoop=1;jettySize=auto;html=1;" parent="WIyWlLk6GJQsqaUBKTNV-1" source="dWy9M6w6shqokPIV0m0O-64" target="gjct6-y1da_A0qvUHwuh-34" edge="1">
          <mxGeometry relative="1" as="geometry" />
        </mxCell>
        <mxCell id="dWy9M6w6shqokPIV0m0O-64" value="erase pacman" style="rounded=1;whiteSpace=wrap;html=1;" parent="WIyWlLk6GJQsqaUBKTNV-1" vertex="1">
          <mxGeometry x="920" y="1052.5" width="120" height="40" as="geometry" />
        </mxCell>
        <mxCell id="gjct6-y1da_A0qvUHwuh-5" style="edgeStyle=orthogonalEdgeStyle;rounded=0;orthogonalLoop=1;jettySize=auto;html=1;exitX=0.5;exitY=1;exitDx=0;exitDy=0;entryX=0.5;entryY=0;entryDx=0;entryDy=0;" parent="WIyWlLk6GJQsqaUBKTNV-1" source="Bdh57RUHH2L1J_IjQSGo-30" target="dWy9M6w6shqokPIV0m0O-2" edge="1">
          <mxGeometry relative="1" as="geometry">
            <mxPoint x="220" y="220" as="sourcePoint" />
          </mxGeometry>
        </mxCell>
        <mxCell id="gjct6-y1da_A0qvUHwuh-8" value="" style="edgeStyle=orthogonalEdgeStyle;rounded=0;orthogonalLoop=1;jettySize=auto;html=1;" parent="WIyWlLk6GJQsqaUBKTNV-1" source="gjct6-y1da_A0qvUHwuh-6" target="gjct6-y1da_A0qvUHwuh-7" edge="1">
          <mxGeometry relative="1" as="geometry" />
        </mxCell>
        <mxCell id="gjct6-y1da_A0qvUHwuh-6" value="draw dots" style="rounded=1;whiteSpace=wrap;html=1;" parent="WIyWlLk6GJQsqaUBKTNV-1" vertex="1">
          <mxGeometry x="560" y="40" width="120" height="40" as="geometry" />
        </mxCell>
        <mxCell id="gjct6-y1da_A0qvUHwuh-10" value="" style="edgeStyle=orthogonalEdgeStyle;rounded=0;orthogonalLoop=1;jettySize=auto;html=1;" parent="WIyWlLk6GJQsqaUBKTNV-1" source="gjct6-y1da_A0qvUHwuh-7" target="gjct6-y1da_A0qvUHwuh-9" edge="1">
          <mxGeometry relative="1" as="geometry" />
        </mxCell>
        <mxCell id="gjct6-y1da_A0qvUHwuh-7" value="list of valid spaces" style="rounded=1;whiteSpace=wrap;html=1;" parent="WIyWlLk6GJQsqaUBKTNV-1" vertex="1">
          <mxGeometry x="560" y="110" width="120" height="40" as="geometry" />
        </mxCell>
        <mxCell id="gjct6-y1da_A0qvUHwuh-14" value="" style="edgeStyle=orthogonalEdgeStyle;rounded=0;orthogonalLoop=1;jettySize=auto;html=1;entryX=0.5;entryY=0;entryDx=0;entryDy=0;" parent="WIyWlLk6GJQsqaUBKTNV-1" source="gjct6-y1da_A0qvUHwuh-9" target="gjct6-y1da_A0qvUHwuh-15" edge="1">
          <mxGeometry relative="1" as="geometry">
            <mxPoint x="610" y="270" as="targetPoint" />
          </mxGeometry>
        </mxCell>
        <mxCell id="gjct6-y1da_A0qvUHwuh-9" value="index = 0" style="rounded=1;whiteSpace=wrap;html=1;" parent="WIyWlLk6GJQsqaUBKTNV-1" vertex="1">
          <mxGeometry x="560" y="200" width="120" height="40" as="geometry" />
        </mxCell>
        <mxCell id="gjct6-y1da_A0qvUHwuh-17" style="edgeStyle=orthogonalEdgeStyle;rounded=0;orthogonalLoop=1;jettySize=auto;html=1;exitX=0.5;exitY=1;exitDx=0;exitDy=0;entryX=0.5;entryY=0;entryDx=0;entryDy=0;" parent="WIyWlLk6GJQsqaUBKTNV-1" source="gjct6-y1da_A0qvUHwuh-15" target="gjct6-y1da_A0qvUHwuh-16" edge="1">
          <mxGeometry relative="1" as="geometry" />
        </mxCell>
        <mxCell id="gjct6-y1da_A0qvUHwuh-18" value="Yes" style="edgeLabel;html=1;align=center;verticalAlign=middle;resizable=0;points=[];" parent="gjct6-y1da_A0qvUHwuh-17" vertex="1" connectable="0">
          <mxGeometry x="-0.0889" y="1" relative="1" as="geometry">
            <mxPoint y="1" as="offset" />
          </mxGeometry>
        </mxCell>
        <mxCell id="gjct6-y1da_A0qvUHwuh-20" style="edgeStyle=orthogonalEdgeStyle;rounded=0;orthogonalLoop=1;jettySize=auto;html=1;exitX=1;exitY=0.5;exitDx=0;exitDy=0;entryX=0;entryY=0.5;entryDx=0;entryDy=0;" parent="WIyWlLk6GJQsqaUBKTNV-1" source="gjct6-y1da_A0qvUHwuh-15" target="gjct6-y1da_A0qvUHwuh-19" edge="1">
          <mxGeometry relative="1" as="geometry" />
        </mxCell>
        <mxCell id="gjct6-y1da_A0qvUHwuh-22" value="No" style="edgeLabel;html=1;align=center;verticalAlign=middle;resizable=0;points=[];" parent="gjct6-y1da_A0qvUHwuh-20" vertex="1" connectable="0">
          <mxGeometry x="-0.4948" y="2" relative="1" as="geometry">
            <mxPoint as="offset" />
          </mxGeometry>
        </mxCell>
        <mxCell id="gjct6-y1da_A0qvUHwuh-15" value="&lt;div&gt;is index larger than length&lt;/div&gt;&lt;div&gt;of list of valid spaces?&lt;/div&gt;" style="rhombus;whiteSpace=wrap;html=1;" parent="WIyWlLk6GJQsqaUBKTNV-1" vertex="1">
          <mxGeometry x="537.5" y="270" width="165" height="110" as="geometry" />
        </mxCell>
        <mxCell id="gjct6-y1da_A0qvUHwuh-16" value="end" style="rounded=1;whiteSpace=wrap;html=1;" parent="WIyWlLk6GJQsqaUBKTNV-1" vertex="1">
          <mxGeometry x="590" y="440" width="60" height="30" as="geometry" />
        </mxCell>
        <mxCell id="gjct6-y1da_A0qvUHwuh-21" style="edgeStyle=orthogonalEdgeStyle;rounded=0;orthogonalLoop=1;jettySize=auto;html=1;exitX=0.5;exitY=0;exitDx=0;exitDy=0;entryX=1;entryY=0;entryDx=0;entryDy=0;" parent="WIyWlLk6GJQsqaUBKTNV-1" source="gjct6-y1da_A0qvUHwuh-19" target="gjct6-y1da_A0qvUHwuh-15" edge="1">
          <mxGeometry relative="1" as="geometry" />
        </mxCell>
        <mxCell id="gjct6-y1da_A0qvUHwuh-19" value="draw a dot at the space at the index in list of valid spaces" style="rounded=1;whiteSpace=wrap;html=1;" parent="WIyWlLk6GJQsqaUBKTNV-1" vertex="1">
          <mxGeometry x="780" y="320" width="120" height="60" as="geometry" />
        </mxCell>
        <mxCell id="gjct6-y1da_A0qvUHwuh-24" value="playerScore = 0" style="rounded=1;whiteSpace=wrap;html=1;fontSize=12;glass=0;strokeWidth=1;shadow=0;" parent="WIyWlLk6GJQsqaUBKTNV-1" vertex="1">
          <mxGeometry x="160" y="-130" width="120" height="40" as="geometry" />
        </mxCell>
        <mxCell id="gjct6-y1da_A0qvUHwuh-30" value="" style="edgeStyle=orthogonalEdgeStyle;rounded=0;orthogonalLoop=1;jettySize=auto;html=1;" parent="WIyWlLk6GJQsqaUBKTNV-1" source="gjct6-y1da_A0qvUHwuh-27" target="gjct6-y1da_A0qvUHwuh-29" edge="1">
          <mxGeometry relative="1" as="geometry" />
        </mxCell>
        <mxCell id="gjct6-y1da_A0qvUHwuh-27" value="playerPos = startPos" style="rounded=1;whiteSpace=wrap;html=1;" parent="WIyWlLk6GJQsqaUBKTNV-1" vertex="1">
          <mxGeometry x="920" y="932.5" width="120" height="40" as="geometry" />
        </mxCell>
        <mxCell id="Bdh57RUHH2L1J_IjQSGo-17" style="edgeStyle=orthogonalEdgeStyle;rounded=0;orthogonalLoop=1;jettySize=auto;html=1;exitX=0.5;exitY=0;exitDx=0;exitDy=0;entryX=1;entryY=1;entryDx=0;entryDy=0;" edge="1" parent="WIyWlLk6GJQsqaUBKTNV-1" source="gjct6-y1da_A0qvUHwuh-29" target="Bdh57RUHH2L1J_IjQSGo-13">
          <mxGeometry relative="1" as="geometry">
            <Array as="points">
              <mxPoint x="980" y="713" />
            </Array>
          </mxGeometry>
        </mxCell>
        <mxCell id="gjct6-y1da_A0qvUHwuh-29" value="run draw dots" style="rounded=1;whiteSpace=wrap;html=1;" parent="WIyWlLk6GJQsqaUBKTNV-1" vertex="1">
          <mxGeometry x="920" y="877.5" width="120" height="40" as="geometry" />
        </mxCell>
        <mxCell id="gjct6-y1da_A0qvUHwuh-36" style="edgeStyle=orthogonalEdgeStyle;rounded=0;orthogonalLoop=1;jettySize=auto;html=1;exitX=0.5;exitY=0;exitDx=0;exitDy=0;entryX=0.5;entryY=1;entryDx=0;entryDy=0;" parent="WIyWlLk6GJQsqaUBKTNV-1" source="gjct6-y1da_A0qvUHwuh-34" target="gjct6-y1da_A0qvUHwuh-27" edge="1">
          <mxGeometry relative="1" as="geometry" />
        </mxCell>
        <mxCell id="gjct6-y1da_A0qvUHwuh-34" value="input = none" style="rounded=1;whiteSpace=wrap;html=1;" parent="WIyWlLk6GJQsqaUBKTNV-1" vertex="1">
          <mxGeometry x="920" y="997.5" width="120" height="40" as="geometry" />
        </mxCell>
        <mxCell id="Bdh57RUHH2L1J_IjQSGo-8" value="" style="edgeStyle=orthogonalEdgeStyle;rounded=0;orthogonalLoop=1;jettySize=auto;html=1;exitX=0;exitY=0.5;exitDx=0;exitDy=0;entryX=0.5;entryY=0;entryDx=0;entryDy=0;" edge="1" parent="WIyWlLk6GJQsqaUBKTNV-1" source="dWy9M6w6shqokPIV0m0O-14" target="dWy9M6w6shqokPIV0m0O-20">
          <mxGeometry relative="1" as="geometry">
            <mxPoint x="50.06" y="1492.5600000000004" as="targetPoint" />
            <mxPoint x="138" y="1348" as="sourcePoint" />
          </mxGeometry>
        </mxCell>
        <mxCell id="dWy9M6w6shqokPIV0m0O-20" value="set input to up" style="rounded=1;whiteSpace=wrap;html=1;" parent="WIyWlLk6GJQsqaUBKTNV-1" vertex="1">
          <mxGeometry x="20" y="1492.56" width="75" height="40" as="geometry" />
        </mxCell>
        <mxCell id="Bdh57RUHH2L1J_IjQSGo-12" style="edgeStyle=orthogonalEdgeStyle;rounded=0;orthogonalLoop=1;jettySize=auto;html=1;exitX=0.5;exitY=1;exitDx=0;exitDy=0;entryX=0.5;entryY=0;entryDx=0;entryDy=0;" edge="1" parent="WIyWlLk6GJQsqaUBKTNV-1" source="Bdh57RUHH2L1J_IjQSGo-10" target="dWy9M6w6shqokPIV0m0O-14">
          <mxGeometry relative="1" as="geometry" />
        </mxCell>
        <mxCell id="Bdh57RUHH2L1J_IjQSGo-10" value="oldPos = playerPos" style="rounded=1;whiteSpace=wrap;html=1;" vertex="1" parent="WIyWlLk6GJQsqaUBKTNV-1">
          <mxGeometry x="140" y="1220" width="120" height="40" as="geometry" />
        </mxCell>
        <mxCell id="Bdh57RUHH2L1J_IjQSGo-14" value="" style="edgeStyle=orthogonalEdgeStyle;rounded=0;orthogonalLoop=1;jettySize=auto;html=1;exitX=0.5;exitY=1;exitDx=0;exitDy=0;entryX=0.5;entryY=0;entryDx=0;entryDy=0;" edge="1" parent="WIyWlLk6GJQsqaUBKTNV-1" source="Bdh57RUHH2L1J_IjQSGo-73" target="Bdh57RUHH2L1J_IjQSGo-13">
          <mxGeometry relative="1" as="geometry">
            <mxPoint x="200" y="550" as="sourcePoint" />
            <mxPoint x="200" y="780" as="targetPoint" />
          </mxGeometry>
        </mxCell>
        <mxCell id="Bdh57RUHH2L1J_IjQSGo-19" style="edgeStyle=orthogonalEdgeStyle;rounded=0;orthogonalLoop=1;jettySize=auto;html=1;exitX=0;exitY=0.5;exitDx=0;exitDy=0;entryX=1;entryY=0.5;entryDx=0;entryDy=0;" edge="1" parent="WIyWlLk6GJQsqaUBKTNV-1" source="Bdh57RUHH2L1J_IjQSGo-13" target="Bdh57RUHH2L1J_IjQSGo-18">
          <mxGeometry relative="1" as="geometry" />
        </mxCell>
        <mxCell id="Bdh57RUHH2L1J_IjQSGo-20" value="No" style="edgeLabel;html=1;align=center;verticalAlign=middle;resizable=0;points=[];" vertex="1" connectable="0" parent="Bdh57RUHH2L1J_IjQSGo-19">
          <mxGeometry x="-0.1107" y="-2" relative="1" as="geometry">
            <mxPoint as="offset" />
          </mxGeometry>
        </mxCell>
        <mxCell id="Bdh57RUHH2L1J_IjQSGo-13" value="is running true?" style="rhombus;whiteSpace=wrap;html=1;" vertex="1" parent="WIyWlLk6GJQsqaUBKTNV-1">
          <mxGeometry x="125.12" y="660" width="147.44" height="70" as="geometry" />
        </mxCell>
        <mxCell id="Bdh57RUHH2L1J_IjQSGo-18" value="end program" style="rounded=1;whiteSpace=wrap;html=1;" vertex="1" parent="WIyWlLk6GJQsqaUBKTNV-1">
          <mxGeometry x="-80" y="680" width="120" height="30" as="geometry" />
        </mxCell>
        <mxCell id="Bdh57RUHH2L1J_IjQSGo-27" style="edgeStyle=orthogonalEdgeStyle;rounded=0;orthogonalLoop=1;jettySize=auto;html=1;exitX=0;exitY=0.5;exitDx=0;exitDy=0;entryX=1;entryY=0.5;entryDx=0;entryDy=0;" edge="1" parent="WIyWlLk6GJQsqaUBKTNV-1" source="Bdh57RUHH2L1J_IjQSGo-23" target="Bdh57RUHH2L1J_IjQSGo-26">
          <mxGeometry relative="1" as="geometry" />
        </mxCell>
        <mxCell id="Bdh57RUHH2L1J_IjQSGo-28" value="Yes" style="edgeLabel;html=1;align=center;verticalAlign=middle;resizable=0;points=[];" vertex="1" connectable="0" parent="Bdh57RUHH2L1J_IjQSGo-27">
          <mxGeometry x="0.0444" y="4" relative="1" as="geometry">
            <mxPoint x="-1" as="offset" />
          </mxGeometry>
        </mxCell>
        <mxCell id="Bdh57RUHH2L1J_IjQSGo-65" style="edgeStyle=orthogonalEdgeStyle;rounded=0;orthogonalLoop=1;jettySize=auto;html=1;exitX=0.5;exitY=1;exitDx=0;exitDy=0;entryX=0.5;entryY=0;entryDx=0;entryDy=0;" edge="1" parent="WIyWlLk6GJQsqaUBKTNV-1" source="Bdh57RUHH2L1J_IjQSGo-23" target="Bdh57RUHH2L1J_IjQSGo-63">
          <mxGeometry relative="1" as="geometry" />
        </mxCell>
        <mxCell id="Bdh57RUHH2L1J_IjQSGo-69" value="No" style="edgeLabel;html=1;align=center;verticalAlign=middle;resizable=0;points=[];" vertex="1" connectable="0" parent="Bdh57RUHH2L1J_IjQSGo-65">
          <mxGeometry x="-0.1479" y="-1" relative="1" as="geometry">
            <mxPoint as="offset" />
          </mxGeometry>
        </mxCell>
        <mxCell id="Bdh57RUHH2L1J_IjQSGo-23" value="&lt;div&gt;has the app&lt;/div&gt;&lt;div&gt;been closed?&lt;/div&gt;" style="rhombus;whiteSpace=wrap;html=1;" vertex="1" parent="WIyWlLk6GJQsqaUBKTNV-1">
          <mxGeometry x="120" y="780" width="160" height="70" as="geometry" />
        </mxCell>
        <mxCell id="Bdh57RUHH2L1J_IjQSGo-26" value="running == false" style="rounded=1;whiteSpace=wrap;html=1;" vertex="1" parent="WIyWlLk6GJQsqaUBKTNV-1">
          <mxGeometry x="-60" y="797.5" width="120" height="35" as="geometry" />
        </mxCell>
        <mxCell id="Bdh57RUHH2L1J_IjQSGo-31" value="" style="edgeStyle=orthogonalEdgeStyle;rounded=0;orthogonalLoop=1;jettySize=auto;html=1;exitX=0.5;exitY=1;exitDx=0;exitDy=0;entryX=0.5;entryY=0;entryDx=0;entryDy=0;" edge="1" parent="WIyWlLk6GJQsqaUBKTNV-1" source="Bdh57RUHH2L1J_IjQSGo-71" target="Bdh57RUHH2L1J_IjQSGo-30">
          <mxGeometry relative="1" as="geometry">
            <mxPoint x="220" y="-90" as="sourcePoint" />
            <mxPoint x="220" y="-40" as="targetPoint" />
          </mxGeometry>
        </mxCell>
        <mxCell id="Bdh57RUHH2L1J_IjQSGo-30" value="fill background" style="rounded=1;whiteSpace=wrap;html=1;" vertex="1" parent="WIyWlLk6GJQsqaUBKTNV-1">
          <mxGeometry x="160" y="20" width="120" height="40" as="geometry" />
        </mxCell>
        <mxCell id="Bdh57RUHH2L1J_IjQSGo-34" value="" style="edgeStyle=orthogonalEdgeStyle;rounded=0;orthogonalLoop=1;jettySize=auto;html=1;exitX=0.5;exitY=1;exitDx=0;exitDy=0;entryX=0.5;entryY=0;entryDx=0;entryDy=0;" edge="1" parent="WIyWlLk6GJQsqaUBKTNV-1" source="dWy9M6w6shqokPIV0m0O-2" target="Bdh57RUHH2L1J_IjQSGo-33">
          <mxGeometry relative="1" as="geometry">
            <mxPoint x="220" y="80" as="sourcePoint" />
            <mxPoint x="220" y="340" as="targetPoint" />
          </mxGeometry>
        </mxCell>
        <mxCell id="Bdh57RUHH2L1J_IjQSGo-33" value="startButtonPressed = false" style="rounded=1;whiteSpace=wrap;html=1;" vertex="1" parent="WIyWlLk6GJQsqaUBKTNV-1">
          <mxGeometry x="160" y="170" width="120" height="60" as="geometry" />
        </mxCell>
        <mxCell id="Bdh57RUHH2L1J_IjQSGo-67" style="edgeStyle=orthogonalEdgeStyle;rounded=0;orthogonalLoop=1;jettySize=auto;html=1;exitX=0.5;exitY=1;exitDx=0;exitDy=0;entryX=0.5;entryY=0;entryDx=0;entryDy=0;" edge="1" parent="WIyWlLk6GJQsqaUBKTNV-1" source="Bdh57RUHH2L1J_IjQSGo-36" target="Bdh57RUHH2L1J_IjQSGo-66">
          <mxGeometry relative="1" as="geometry" />
        </mxCell>
        <mxCell id="Bdh57RUHH2L1J_IjQSGo-36" value="draw maze" style="rounded=1;whiteSpace=wrap;html=1;fontSize=12;glass=0;strokeWidth=1;shadow=0;" vertex="1" parent="WIyWlLk6GJQsqaUBKTNV-1">
          <mxGeometry x="140" y="965" width="120" height="40" as="geometry" />
        </mxCell>
        <mxCell id="Bdh57RUHH2L1J_IjQSGo-38" value="" style="edgeStyle=orthogonalEdgeStyle;rounded=0;orthogonalLoop=1;jettySize=auto;html=1;" edge="1" parent="WIyWlLk6GJQsqaUBKTNV-1" source="Bdh57RUHH2L1J_IjQSGo-39" target="Bdh57RUHH2L1J_IjQSGo-40">
          <mxGeometry relative="1" as="geometry" />
        </mxCell>
        <mxCell id="Bdh57RUHH2L1J_IjQSGo-39" value="draw pacman" style="rounded=1;whiteSpace=wrap;html=1;fontSize=12;glass=0;strokeWidth=1;shadow=0;" vertex="1" parent="WIyWlLk6GJQsqaUBKTNV-1">
          <mxGeometry x="137.56" y="1080" width="120" height="40" as="geometry" />
        </mxCell>
        <mxCell id="Bdh57RUHH2L1J_IjQSGo-41" style="edgeStyle=orthogonalEdgeStyle;rounded=0;orthogonalLoop=1;jettySize=auto;html=1;exitX=0.5;exitY=1;exitDx=0;exitDy=0;entryX=0.5;entryY=0;entryDx=0;entryDy=0;" edge="1" parent="WIyWlLk6GJQsqaUBKTNV-1" source="Bdh57RUHH2L1J_IjQSGo-40" target="Bdh57RUHH2L1J_IjQSGo-10">
          <mxGeometry relative="1" as="geometry" />
        </mxCell>
        <mxCell id="Bdh57RUHH2L1J_IjQSGo-40" value="run draw dots" style="rounded=1;whiteSpace=wrap;html=1;fontSize=12;glass=0;strokeWidth=1;shadow=0;" vertex="1" parent="WIyWlLk6GJQsqaUBKTNV-1">
          <mxGeometry x="137.56" y="1160" width="120" height="40" as="geometry" />
        </mxCell>
        <mxCell id="Bdh57RUHH2L1J_IjQSGo-45" style="edgeStyle=orthogonalEdgeStyle;rounded=0;orthogonalLoop=1;jettySize=auto;html=1;exitX=0.5;exitY=1;exitDx=0;exitDy=0;entryX=0.5;entryY=0;entryDx=0;entryDy=0;" edge="1" parent="WIyWlLk6GJQsqaUBKTNV-1" source="Bdh57RUHH2L1J_IjQSGo-49" target="Bdh57RUHH2L1J_IjQSGo-56">
          <mxGeometry relative="1" as="geometry">
            <mxPoint x="187.55999999999995" y="1850" as="targetPoint" />
          </mxGeometry>
        </mxCell>
        <mxCell id="Bdh57RUHH2L1J_IjQSGo-46" value="No" style="edgeLabel;html=1;align=center;verticalAlign=middle;resizable=0;points=[];" vertex="1" connectable="0" parent="Bdh57RUHH2L1J_IjQSGo-45">
          <mxGeometry x="-0.2944" y="-3" relative="1" as="geometry">
            <mxPoint x="-1" as="offset" />
          </mxGeometry>
        </mxCell>
        <mxCell id="Bdh57RUHH2L1J_IjQSGo-47" style="edgeStyle=orthogonalEdgeStyle;rounded=0;orthogonalLoop=1;jettySize=auto;html=1;exitX=1;exitY=0.5;exitDx=0;exitDy=0;entryX=0;entryY=0.5;entryDx=0;entryDy=0;" edge="1" parent="WIyWlLk6GJQsqaUBKTNV-1" source="Bdh57RUHH2L1J_IjQSGo-49" target="Bdh57RUHH2L1J_IjQSGo-51">
          <mxGeometry relative="1" as="geometry" />
        </mxCell>
        <mxCell id="Bdh57RUHH2L1J_IjQSGo-48" value="Yes" style="edgeLabel;html=1;align=center;verticalAlign=middle;resizable=0;points=[];" vertex="1" connectable="0" parent="Bdh57RUHH2L1J_IjQSGo-47">
          <mxGeometry x="-0.1252" y="-1" relative="1" as="geometry">
            <mxPoint y="-1" as="offset" />
          </mxGeometry>
        </mxCell>
        <mxCell id="Bdh57RUHH2L1J_IjQSGo-49" value="&lt;div&gt;is the player&lt;/div&gt;&lt;div&gt;touching a wall&lt;/div&gt;" style="rhombus;whiteSpace=wrap;html=1;" vertex="1" parent="WIyWlLk6GJQsqaUBKTNV-1">
          <mxGeometry x="125.12" y="1730" width="130" height="60" as="geometry" />
        </mxCell>
        <mxCell id="Bdh57RUHH2L1J_IjQSGo-50" value="" style="edgeStyle=orthogonalEdgeStyle;rounded=0;orthogonalLoop=1;jettySize=auto;html=1;" edge="1" parent="WIyWlLk6GJQsqaUBKTNV-1" source="Bdh57RUHH2L1J_IjQSGo-51" target="Bdh57RUHH2L1J_IjQSGo-52">
          <mxGeometry relative="1" as="geometry" />
        </mxCell>
        <mxCell id="Bdh57RUHH2L1J_IjQSGo-51" value="playerPos = oldPos" style="rounded=1;whiteSpace=wrap;html=1;" vertex="1" parent="WIyWlLk6GJQsqaUBKTNV-1">
          <mxGeometry x="292.56" y="1742.47" width="120" height="35.06" as="geometry" />
        </mxCell>
        <mxCell id="Bdh57RUHH2L1J_IjQSGo-55" style="edgeStyle=orthogonalEdgeStyle;rounded=0;orthogonalLoop=1;jettySize=auto;html=1;exitX=1;exitY=0.5;exitDx=0;exitDy=0;entryX=0.5;entryY=0;entryDx=0;entryDy=0;" edge="1" parent="WIyWlLk6GJQsqaUBKTNV-1" source="Bdh57RUHH2L1J_IjQSGo-52" target="dWy9M6w6shqokPIV0m0O-38">
          <mxGeometry relative="1" as="geometry" />
        </mxCell>
        <mxCell id="Bdh57RUHH2L1J_IjQSGo-52" value="set input to none" style="whiteSpace=wrap;html=1;rounded=1;" vertex="1" parent="WIyWlLk6GJQsqaUBKTNV-1">
          <mxGeometry x="292.56" y="1662.5600000000002" width="120" height="30" as="geometry" />
        </mxCell>
        <mxCell id="Bdh57RUHH2L1J_IjQSGo-58" style="edgeStyle=orthogonalEdgeStyle;rounded=0;orthogonalLoop=1;jettySize=auto;html=1;exitX=0.5;exitY=1;exitDx=0;exitDy=0;entryX=0.5;entryY=0;entryDx=0;entryDy=0;" edge="1" parent="WIyWlLk6GJQsqaUBKTNV-1" source="Bdh57RUHH2L1J_IjQSGo-56" target="Bdh57RUHH2L1J_IjQSGo-57">
          <mxGeometry relative="1" as="geometry" />
        </mxCell>
        <mxCell id="Bdh57RUHH2L1J_IjQSGo-59" value="Yes" style="edgeLabel;html=1;align=center;verticalAlign=middle;resizable=0;points=[];" vertex="1" connectable="0" parent="Bdh57RUHH2L1J_IjQSGo-58">
          <mxGeometry x="-0.3788" relative="1" as="geometry">
            <mxPoint as="offset" />
          </mxGeometry>
        </mxCell>
        <mxCell id="Bdh57RUHH2L1J_IjQSGo-61" style="edgeStyle=orthogonalEdgeStyle;rounded=0;orthogonalLoop=1;jettySize=auto;html=1;exitX=1;exitY=0.5;exitDx=0;exitDy=0;entryX=0;entryY=0.5;entryDx=0;entryDy=0;" edge="1" parent="WIyWlLk6GJQsqaUBKTNV-1" source="Bdh57RUHH2L1J_IjQSGo-56" target="dWy9M6w6shqokPIV0m0O-38">
          <mxGeometry relative="1" as="geometry">
            <mxPoint x="430" y="1740" as="targetPoint" />
            <Array as="points">
              <mxPoint x="430" y="1880" />
              <mxPoint x="430" y="1743" />
            </Array>
          </mxGeometry>
        </mxCell>
        <mxCell id="Bdh57RUHH2L1J_IjQSGo-62" value="No" style="edgeLabel;html=1;align=center;verticalAlign=middle;resizable=0;points=[];" vertex="1" connectable="0" parent="Bdh57RUHH2L1J_IjQSGo-61">
          <mxGeometry x="-0.6204" y="-1" relative="1" as="geometry">
            <mxPoint as="offset" />
          </mxGeometry>
        </mxCell>
        <mxCell id="Bdh57RUHH2L1J_IjQSGo-56" value="is the player touching a spot that would teleport them?" style="rhombus;whiteSpace=wrap;html=1;" vertex="1" parent="WIyWlLk6GJQsqaUBKTNV-1">
          <mxGeometry x="110.12" y="1830" width="162.44" height="100" as="geometry" />
        </mxCell>
        <mxCell id="Bdh57RUHH2L1J_IjQSGo-60" style="edgeStyle=orthogonalEdgeStyle;rounded=0;orthogonalLoop=1;jettySize=auto;html=1;exitX=1;exitY=0.5;exitDx=0;exitDy=0;entryX=0;entryY=1;entryDx=0;entryDy=0;" edge="1" parent="WIyWlLk6GJQsqaUBKTNV-1" source="Bdh57RUHH2L1J_IjQSGo-57" target="dWy9M6w6shqokPIV0m0O-38">
          <mxGeometry relative="1" as="geometry">
            <mxPoint x="460" y="1770" as="targetPoint" />
            <Array as="points">
              <mxPoint x="470" y="1990" />
              <mxPoint x="470" y="1770" />
              <mxPoint x="507" y="1770" />
            </Array>
          </mxGeometry>
        </mxCell>
        <mxCell id="Bdh57RUHH2L1J_IjQSGo-57" value="move the player to the new position" style="rounded=1;whiteSpace=wrap;html=1;" vertex="1" parent="WIyWlLk6GJQsqaUBKTNV-1">
          <mxGeometry x="132.56" y="1960" width="120" height="60" as="geometry" />
        </mxCell>
        <mxCell id="Bdh57RUHH2L1J_IjQSGo-64" style="edgeStyle=orthogonalEdgeStyle;rounded=0;orthogonalLoop=1;jettySize=auto;html=1;exitX=0.5;exitY=1;exitDx=0;exitDy=0;entryX=0.5;entryY=0;entryDx=0;entryDy=0;" edge="1" parent="WIyWlLk6GJQsqaUBKTNV-1" source="Bdh57RUHH2L1J_IjQSGo-63" target="Bdh57RUHH2L1J_IjQSGo-36">
          <mxGeometry relative="1" as="geometry" />
        </mxCell>
        <mxCell id="Bdh57RUHH2L1J_IjQSGo-63" value="fill screen" style="rounded=1;whiteSpace=wrap;html=1;" vertex="1" parent="WIyWlLk6GJQsqaUBKTNV-1">
          <mxGeometry x="141.28" y="905" width="120" height="40" as="geometry" />
        </mxCell>
        <mxCell id="Bdh57RUHH2L1J_IjQSGo-68" style="edgeStyle=orthogonalEdgeStyle;rounded=0;orthogonalLoop=1;jettySize=auto;html=1;exitX=0.5;exitY=1;exitDx=0;exitDy=0;entryX=0.5;entryY=0;entryDx=0;entryDy=0;" edge="1" parent="WIyWlLk6GJQsqaUBKTNV-1" source="Bdh57RUHH2L1J_IjQSGo-66" target="Bdh57RUHH2L1J_IjQSGo-39">
          <mxGeometry relative="1" as="geometry" />
        </mxCell>
        <mxCell id="Bdh57RUHH2L1J_IjQSGo-66" value="draw teleport spots" style="rounded=1;whiteSpace=wrap;html=1;" vertex="1" parent="WIyWlLk6GJQsqaUBKTNV-1">
          <mxGeometry x="140" y="1020" width="120" height="40" as="geometry" />
        </mxCell>
        <mxCell id="Bdh57RUHH2L1J_IjQSGo-72" value="" style="edgeStyle=orthogonalEdgeStyle;rounded=0;orthogonalLoop=1;jettySize=auto;html=1;exitX=0.5;exitY=1;exitDx=0;exitDy=0;entryX=0.5;entryY=0;entryDx=0;entryDy=0;" edge="1" parent="WIyWlLk6GJQsqaUBKTNV-1" source="gjct6-y1da_A0qvUHwuh-24" target="Bdh57RUHH2L1J_IjQSGo-71">
          <mxGeometry relative="1" as="geometry">
            <mxPoint x="220" y="-90" as="sourcePoint" />
            <mxPoint x="220" y="20" as="targetPoint" />
          </mxGeometry>
        </mxCell>
        <mxCell id="Bdh57RUHH2L1J_IjQSGo-71" value="set player starting position" style="rounded=1;whiteSpace=wrap;html=1;" vertex="1" parent="WIyWlLk6GJQsqaUBKTNV-1">
          <mxGeometry x="160" y="-60" width="120" height="60" as="geometry" />
        </mxCell>
        <mxCell id="Bdh57RUHH2L1J_IjQSGo-74" value="" style="edgeStyle=orthogonalEdgeStyle;rounded=0;orthogonalLoop=1;jettySize=auto;html=1;exitX=0.5;exitY=1;exitDx=0;exitDy=0;entryX=0.5;entryY=0;entryDx=0;entryDy=0;" edge="1" parent="WIyWlLk6GJQsqaUBKTNV-1" source="dWy9M6w6shqokPIV0m0O-9" target="Bdh57RUHH2L1J_IjQSGo-73">
          <mxGeometry relative="1" as="geometry">
            <mxPoint x="200" y="550" as="sourcePoint" />
            <mxPoint x="186" y="660" as="targetPoint" />
          </mxGeometry>
        </mxCell>
        <mxCell id="Bdh57RUHH2L1J_IjQSGo-73" value="playerPos = startPos" style="rounded=1;whiteSpace=wrap;html=1;" vertex="1" parent="WIyWlLk6GJQsqaUBKTNV-1">
          <mxGeometry x="137.55999999999995" y="570" width="120" height="40" as="geometry" />
        </mxCell>
      </root>
    </mxGraphModel>
  </diagram>
</mxfile>
